
<global>
amp_veltrack=0
ampeg_attack=0.001
ampeg_release=1.5
</global>

<group>
ampeg_release=1.0603
group_label=RR1
seq_length=4
seq_position=1

<region>
end=48581
hivel=103
key=D#3
lovel=78
offset=965
sample=Cymbals_20INCH_Crash_Choke_F_D4_RR1.opus
</region>

<region>
end=54738
hivel=127
key=D#3
lovel=104
offset=978
sample=Cymbals_20INCH_Crash_Choke_FF_D4_RR1.opus
</region>

<region>
end=57303
hivel=77
key=D#3
lovel=52
offset=2519
sample=Cymbals_20INCH_Crash_Choke_MF_D4_RR1.opus
</region>

<region>
end=52459
hivel=51
key=D#3
lovel=26
offset=2795
sample=Cymbals_20INCH_Crash_Choke_MP_D4_RR1.opus
</region>

<region>
end=58496
hivel=25
key=D#3
lovel=0
offset=3200
sample=Cymbals_20INCH_Crash_Choke_P_D4_RR1.opus
</region>

<region>
hivel=103
key=D3
lovel=78
offset=2816
sample=Cymbals_20INCH_Crash_F_D4_RR1.opus
</region>

<region>
hivel=127
key=D3
lovel=104
offset=880
sample=Cymbals_20INCH_Crash_FF_D4_RR1.opus
</region>

<region>
hivel=77
key=D3
lovel=52
offset=3680
sample=Cymbals_20INCH_Crash_MF_D4_RR1.opus
</region>

<region>
hivel=51
key=D3
lovel=26
offset=1862
sample=Cymbals_20INCH_Crash_MP_D4_RR1.opus
</region>

<region>
hivel=25
key=D3
lovel=0
offset=2705
sample=Cymbals_20INCH_Crash_P_D4_RR1.opus
</region>

<region>
end=53340
hivel=103
key=F3
lovel=78
offset=3676
sample=Cymbals_20INCH_HiHat_F_D4_RR1.opus
</region>

<region>
end=61670
hivel=127
key=F3
lovel=104
offset=4838
sample=Cymbals_20INCH_HiHat_FF_D4_RR1.opus
</region>

<region>
end=65651
hivel=77
key=F3
lovel=52
offset=3699
sample=Cymbals_20INCH_HiHat_MF_D4_RR1.opus
</region>

<region>
end=48917
hivel=51
key=F3
lovel=26
offset=3861
sample=Cymbals_20INCH_HiHat_MP_D4_RR1.opus
</region>

<region>
end=61441
hivel=25
key=F3
lovel=0
offset=3585
sample=Cymbals_20INCH_HiHat_P_D4_RR1.opus
</region>

<region>
end=49774
hivel=103
key=G3
lovel=78
offset=3694
sample=Cymbals_20INCH_Punch_F_D4_RR1.opus
</region>

<region>
end=67909
hivel=127
key=G3
lovel=104
offset=4421
sample=Cymbals_20INCH_Punch_FF_D4_RR1.opus
</region>

<region>
end=59439
hivel=77
key=G3
lovel=52
offset=3631
sample=Cymbals_20INCH_Punch_MF_D4_RR1.opus
</region>

<region>
end=44456
hivel=51
key=G3
lovel=26
offset=3496
sample=Cymbals_20INCH_Punch_MP_D4_RR1.opus
</region>

<region>
end=61856
hivel=25
key=G3
lovel=0
offset=4000
sample=Cymbals_20INCH_Punch_P_D4_RR1.opus
</region>

<region>
hivel=103
key=A3
lovel=78
offset=2685
sample=Cymbals_20INCH_Sizzle_F_D4_RR1.opus
</region>

<region>
hivel=127
key=A3
lovel=104
offset=11451
sample=Cymbals_20INCH_Sizzle_FF_D4_RR1.opus
</region>

<region>
hivel=77
key=A3
lovel=52
offset=1187
sample=Cymbals_20INCH_Sizzle_MF_D4_RR1.opus
</region>

<region>
hivel=51
key=A3
lovel=26
offset=3839
sample=Cymbals_20INCH_Sizzle_MP_D4_RR1.opus
</region>

<region>
hivel=25
key=A3
lovel=0
offset=3480
sample=Cymbals_20INCH_Sizzle_P_D4_RR1.opus
</region>

<region>
hivel=103
key=B3
lovel=78
offset=4665
sample=Cymbals_20INCH_Spank_F_D4_RR1.opus
</region>

<region>
end=61503
hivel=127
key=B3
lovel=104
offset=4671
sample=Cymbals_20INCH_Spank_FF_D4_RR1.opus
</region>

<region>
end=56650
hivel=77
key=B3
lovel=52
offset=4426
sample=Cymbals_20INCH_Spank_MF_D4_RR1.opus
</region>

<region>
end=58240
hivel=51
key=B3
lovel=26
offset=4992
sample=Cymbals_20INCH_Spank_MP_D4_RR1.opus
</region>

<region>
end=71611
hivel=25
key=B3
lovel=0
offset=4539
sample=Cymbals_20INCH_Spank_P_D4_RR1.opus
</region>

<region>
end=53645
hivel=103
key=D4
lovel=78
offset=2445
sample=Cymbals_20INCH_Suc_F_D4_RR1.opus
</region>

<region>
end=54831
hivel=127
key=D4
lovel=104
offset=2607
sample=Cymbals_20INCH_Suc_FF_D4_RR1.opus
</region>

<region>
end=62066
hivel=77
key=D4
lovel=52
offset=3717
sample=Cymbals_20INCH_Suc_MF_D4_RR1.opus
</region>

<region>
end=65368
hivel=51
key=D4
lovel=26
offset=3928
sample=Cymbals_20INCH_Suc_MP_D4_RR1.opus
</region>

<region>
end=70079
hivel=25
key=D4
lovel=0
offset=4031
sample=Cymbals_20INCH_Suc_P_D4_RR1.opus
</region>

<region>
hivel=103
key=E4
lovel=78
offset=4992
sample=Cymbals_20INCH_Tap_F_D4_RR1.opus
</region>

<region>
hivel=127
key=E4
lovel=104
offset=5361
sample=Cymbals_20INCH_Tap_FF_D4_RR1.opus
</region>

<region>
hivel=77
key=E4
lovel=52
offset=5068
sample=Cymbals_20INCH_Tap_MF_D4_RR1.opus
</region>

<region>
hivel=51
key=E4
lovel=26
offset=6207
sample=Cymbals_20INCH_Tap_MP_D4_RR1.opus
</region>

<region>
hivel=25
key=E4
lovel=0
offset=4959
sample=Cymbals_20INCH_Tap_P_D4_RR1.opus
</region>

<region>
hivel=103
key=F#4
lovel=78
offset=3498
sample=Cymbals_20INCH_Ting_F_D4_RR1.opus
</region>

<region>
hivel=127
key=F#4
lovel=104
offset=5374
sample=Cymbals_20INCH_Ting_FF_D4_RR1.opus
</region>

<region>
hivel=77
key=F#4
lovel=52
offset=3813
sample=Cymbals_20INCH_Ting_MF_D4_RR1.opus
</region>

<region>
hivel=51
key=F#4
lovel=26
offset=4547
sample=Cymbals_20INCH_Ting_MP_D4_RR1.opus
</region>

<region>
end=214366
hivel=25
key=F#4
lovel=0
offset=4446
sample=Cymbals_20INCH_Ting_P_D4_RR1.opus
</region>

<region>
hivel=127
key=A#4
lovel=0
offset=7845
sample=Cymbals_20INCH_Whale_Call_D4_RR1.opus
</region>

<region>
hivel=127
key=G#4
lovel=64
offset=6745
sample=Cymbals_20INCH_Zing_MP_D4_RR1.opus
</region>

<region>
hivel=63
key=G#4
lovel=0
offset=6871
sample=Cymbals_20INCH_Zing_P_D4_RR1.opus
</region>
</group>

<group>
ampeg_release=0.9397
group_label=RR2
seq_length=4
seq_position=2

<region>
end=49022
hivel=103
key=D#3
lovel=78
offset=382
sample=Cymbals_20INCH_Crash_Choke_F_D4_RR2.opus
</region>

<region>
end=48032
hivel=127
key=D#3
lovel=104
offset=928
sample=Cymbals_20INCH_Crash_Choke_FF_D4_RR2.opus
</region>

<region>
end=50221
hivel=77
key=D#3
lovel=52
offset=557
sample=Cymbals_20INCH_Crash_Choke_MF_D4_RR2.opus
</region>

<region>
end=53210
hivel=51
key=D#3
lovel=26
offset=986
sample=Cymbals_20INCH_Crash_Choke_MP_D4_RR2.opus
</region>

<region>
end=52669
hivel=25
key=D#3
lovel=0
offset=2493
sample=Cymbals_20INCH_Crash_Choke_P_D4_RR2.opus
</region>

<region>
hivel=103
key=D3
lovel=78
offset=3040
sample=Cymbals_20INCH_Crash_F_D4_RR2.opus
</region>

<region>
hivel=127
key=D3
lovel=104
offset=44
sample=Cymbals_20INCH_Crash_FF_D4_RR2.opus
</region>

<region>
hivel=77
key=D3
lovel=52
offset=2594
sample=Cymbals_20INCH_Crash_MF_D4_RR2.opus
</region>

<region>
hivel=51
key=D3
lovel=26
offset=1424
sample=Cymbals_20INCH_Crash_MP_D4_RR2.opus
</region>

<region>
hivel=25
key=D3
lovel=0
offset=6103
sample=Cymbals_20INCH_Crash_P_D4_RR2.opus
</region>

<region>
end=55311
hivel=103
key=F3
lovel=78
offset=3087
sample=Cymbals_20INCH_HiHat_F_D4_RR2.opus
</region>

<region>
end=62234
hivel=127
key=F3
lovel=104
offset=3866
sample=Cymbals_20INCH_HiHat_FF_D4_RR2.opus
</region>

<region>
end=55017
hivel=77
key=F3
lovel=52
offset=2281
sample=Cymbals_20INCH_HiHat_MF_D4_RR2.opus
</region>

<region>
end=64137
hivel=51
key=F3
lovel=26
offset=3209
sample=Cymbals_20INCH_HiHat_MP_D4_RR2.opus
</region>

<region>
end=50462
hivel=25
key=F3
lovel=0
offset=3358
sample=Cymbals_20INCH_HiHat_P_D4_RR2.opus
</region>

<region>
end=57156
hivel=103
key=G3
lovel=78
offset=2372
sample=Cymbals_20INCH_Punch_F_D4_RR2.opus
</region>

<region>
end=60078
hivel=127
key=G3
lovel=104
offset=4782
sample=Cymbals_20INCH_Punch_FF_D4_RR2.opus
</region>

<region>
end=46528
hivel=77
key=G3
lovel=52
offset=3520
sample=Cymbals_20INCH_Punch_MF_D4_RR2.opus
</region>

<region>
end=55830
hivel=51
key=G3
lovel=26
offset=1558
sample=Cymbals_20INCH_Punch_MP_D4_RR2.opus
</region>

<region>
end=65659
hivel=25
key=G3
lovel=0
offset=2683
sample=Cymbals_20INCH_Punch_P_D4_RR2.opus
</region>

<region>
hivel=103
key=A3
lovel=78
offset=2486
sample=Cymbals_20INCH_Sizzle_F_D4_RR2.opus
</region>

<region>
hivel=127
key=A3
lovel=104
offset=9895
sample=Cymbals_20INCH_Sizzle_FF_D4_RR2.opus
</region>

<region>
hivel=77
key=A3
lovel=52
offset=2035
sample=Cymbals_20INCH_Sizzle_MF_D4_RR2.opus
</region>

<region>
hivel=51
key=A3
lovel=26
offset=1838
sample=Cymbals_20INCH_Sizzle_MP_D4_RR2.opus
</region>

<region>
hivel=25
key=A3
lovel=0
offset=3983
sample=Cymbals_20INCH_Sizzle_P_D4_RR2.opus
</region>

<region>
end=66948
hivel=103
key=B3
lovel=78
offset=3460
sample=Cymbals_20INCH_Spank_F_D4_RR2.opus
</region>

<region>
end=68072
hivel=127
key=B3
lovel=104
offset=4584
sample=Cymbals_20INCH_Spank_FF_D4_RR2.opus
</region>

<region>
end=64535
hivel=77
key=B3
lovel=52
offset=5143
sample=Cymbals_20INCH_Spank_MF_D4_RR2.opus
</region>

<region>
end=62164
hivel=51
key=B3
lovel=26
offset=5332
sample=Cymbals_20INCH_Spank_MP_D4_RR2.opus
</region>

<region>
end=62774
hivel=25
key=B3
lovel=0
offset=4918
sample=Cymbals_20INCH_Spank_P_D4_RR2.opus
</region>

<region>
end=44992
hivel=103
key=D4
lovel=78
offset=3520
sample=Cymbals_20INCH_Suc_F_D4_RR2.opus
</region>

<region>
end=59779
hivel=127
key=D4
lovel=104
offset=3405
sample=Cymbals_20INCH_Suc_FF_D4_RR2.opus
</region>

<region>
end=59959
hivel=77
key=D4
lovel=52
offset=3127
sample=Cymbals_20INCH_Suc_MF_D4_RR2.opus
</region>

<region>
end=57321
hivel=51
key=D4
lovel=26
offset=3049
sample=Cymbals_20INCH_Suc_MP_D4_RR2.opus
</region>

<region>
end=64328
hivel=25
key=D4
lovel=0
offset=2888
sample=Cymbals_20INCH_Suc_P_D4_RR2.opus
</region>

<region>
hivel=103
key=E4
lovel=78
offset=4459
sample=Cymbals_20INCH_Tap_F_D4_RR2.opus
</region>

<region>
hivel=127
key=E4
lovel=104
offset=4956
sample=Cymbals_20INCH_Tap_FF_D4_RR2.opus
</region>

<region>
hivel=77
key=E4
lovel=52
offset=4097
sample=Cymbals_20INCH_Tap_MF_D4_RR2.opus
</region>

<region>
hivel=51
key=E4
lovel=26
offset=6946
sample=Cymbals_20INCH_Tap_MP_D4_RR2.opus
</region>

<region>
hivel=25
key=E4
lovel=0
offset=4261
sample=Cymbals_20INCH_Tap_P_D4_RR2.opus
</region>

<region>
hivel=103
key=F#4
lovel=78
offset=4767
sample=Cymbals_20INCH_Ting_F_D4_RR2.opus
</region>

<region>
hivel=127
key=F#4
lovel=104
offset=4828
sample=Cymbals_20INCH_Ting_FF_D4_RR2.opus
</region>

<region>
hivel=77
key=F#4
lovel=52
offset=3501
sample=Cymbals_20INCH_Ting_MF_D4_RR2.opus
</region>

<region>
hivel=51
key=F#4
lovel=26
offset=4458
sample=Cymbals_20INCH_Ting_MP_D4_RR2.opus
</region>

<region>
end=226404
hivel=25
key=F#4
lovel=0
offset=3172
sample=Cymbals_20INCH_Ting_P_D4_RR2.opus
</region>

<region>
hivel=127
key=A#4
lovel=0
offset=11186
sample=Cymbals_20INCH_Whale_Call_D4_RR2.opus
</region>

<region>
hivel=127
key=G#4
lovel=64
offset=5419
sample=Cymbals_20INCH_Zing_MP_D4_RR2.opus
</region>

<region>
hivel=63
key=G#4
lovel=0
offset=5653
sample=Cymbals_20INCH_Zing_P_D4_RR2.opus
</region>
</group>

<group>
ampeg_release=1.0692
group_label=RR3
seq_length=4
seq_position=3

<region>
end=38979
hivel=103
key=D#3
lovel=78
offset=579
sample=Cymbals_20INCH_Crash_Choke_F_D4_RR3.opus
</region>

<region>
end=47025
hivel=127
key=D#3
lovel=104
offset=945
sample=Cymbals_20INCH_Crash_Choke_FF_D4_RR3.opus
</region>

<region>
end=48594
hivel=77
key=D#3
lovel=52
offset=978
sample=Cymbals_20INCH_Crash_Choke_MF_D4_RR3.opus
</region>

<region>
end=54670
hivel=51
key=D#3
lovel=26
offset=3470
sample=Cymbals_20INCH_Crash_Choke_MP_D4_RR3.opus
</region>

<region>
end=41599
hivel=25
key=D#3
lovel=0
offset=3711
sample=Cymbals_20INCH_Crash_Choke_P_D4_RR3.opus
</region>

<region>
hivel=103
key=D3
lovel=78
offset=3869
sample=Cymbals_20INCH_Crash_F_D4_RR3.opus
</region>

<region>
hivel=127
key=D3
lovel=104
offset=40
sample=Cymbals_20INCH_Crash_FF_D4_RR3.opus
</region>

<region>
hivel=77
key=D3
lovel=52
offset=5553
sample=Cymbals_20INCH_Crash_MF_D4_RR3.opus
</region>

<region>
hivel=51
key=D3
lovel=26
offset=3154
sample=Cymbals_20INCH_Crash_MP_D4_RR3.opus
</region>

<region>
hivel=25
key=D3
lovel=0
offset=5106
sample=Cymbals_20INCH_Crash_P_D4_RR3.opus
</region>

<region>
end=51920
hivel=103
key=F3
lovel=78
offset=3792
sample=Cymbals_20INCH_HiHat_F_D4_RR3.opus
</region>

<region>
end=45925
hivel=127
key=F3
lovel=104
offset=1893
sample=Cymbals_20INCH_HiHat_FF_D4_RR3.opus
</region>

<region>
end=60599
hivel=77
key=F3
lovel=52
offset=2231
sample=Cymbals_20INCH_HiHat_MF_D4_RR3.opus
</region>

<region>
end=60320
hivel=51
key=F3
lovel=26
offset=2464
sample=Cymbals_20INCH_HiHat_MP_D4_RR3.opus
</region>

<region>
end=49680
hivel=25
key=F3
lovel=0
offset=1552
sample=Cymbals_20INCH_HiHat_P_D4_RR3.opus
</region>

<region>
end=61907
hivel=103
key=G3
lovel=78
offset=3027
sample=Cymbals_20INCH_Punch_F_D4_RR3.opus
</region>

<region>
end=62566
hivel=127
key=G3
lovel=104
offset=4710
sample=Cymbals_20INCH_Punch_FF_D4_RR3.opus
</region>

<region>
end=54200
hivel=77
key=G3
lovel=52
offset=3512
sample=Cymbals_20INCH_Punch_MF_D4_RR3.opus
</region>

<region>
end=57666
hivel=51
key=G3
lovel=26
offset=3394
sample=Cymbals_20INCH_Punch_MP_D4_RR3.opus
</region>

<region>
end=68728
hivel=25
key=G3
lovel=0
offset=3192
sample=Cymbals_20INCH_Punch_P_D4_RR3.opus
</region>

<region>
hivel=103
key=A3
lovel=78
offset=2412
sample=Cymbals_20INCH_Sizzle_F_D4_RR3.opus
</region>

<region>
hivel=127
key=A3
lovel=104
offset=8320
sample=Cymbals_20INCH_Sizzle_FF_D4_RR3.opus
</region>

<region>
hivel=77
key=A3
lovel=52
offset=907
sample=Cymbals_20INCH_Sizzle_MF_D4_RR3.opus
</region>

<region>
hivel=51
key=A3
lovel=26
offset=3123
sample=Cymbals_20INCH_Sizzle_MP_D4_RR3.opus
</region>

<region>
hivel=25
key=A3
lovel=0
offset=4078
sample=Cymbals_20INCH_Sizzle_P_D4_RR3.opus
</region>

<region>
end=58381
hivel=103
key=B3
lovel=78
offset=3597
sample=Cymbals_20INCH_Spank_F_D4_RR3.opus
</region>

<region>
end=65240
hivel=127
key=B3
lovel=104
offset=5336
sample=Cymbals_20INCH_Spank_FF_D4_RR3.opus
</region>

<region>
end=55241
hivel=77
key=B3
lovel=52
offset=4553
sample=Cymbals_20INCH_Spank_MF_D4_RR3.opus
</region>

<region>
end=60185
hivel=51
key=B3
lovel=26
offset=3353
sample=Cymbals_20INCH_Spank_MP_D4_RR3.opus
</region>

<region>
end=66944
hivel=25
key=B3
lovel=0
offset=4992
sample=Cymbals_20INCH_Spank_P_D4_RR3.opus
</region>

<region>
end=47665
hivel=103
key=D4
lovel=78
offset=3633
sample=Cymbals_20INCH_Suc_F_D4_RR3.opus
</region>

<region>
end=80859
hivel=127
key=D4
lovel=104
offset=2523
sample=Cymbals_20INCH_Suc_FF_D4_RR3.opus
</region>

<region>
end=59698
hivel=77
key=D4
lovel=52
offset=1330
sample=Cymbals_20INCH_Suc_MF_D4_RR3.opus
</region>

<region>
end=55947
hivel=51
key=D4
lovel=26
offset=3723
sample=Cymbals_20INCH_Suc_MP_D4_RR3.opus
</region>

<region>
end=71216
hivel=25
key=D4
lovel=0
offset=3632
sample=Cymbals_20INCH_Suc_P_D4_RR3.opus
</region>

<region>
hivel=103
key=E4
lovel=78
offset=4143
sample=Cymbals_20INCH_Tap_F_D4_RR3.opus
</region>

<region>
hivel=127
key=E4
lovel=104
offset=5003
sample=Cymbals_20INCH_Tap_FF_D4_RR3.opus
</region>

<region>
hivel=77
key=E4
lovel=52
offset=3240
sample=Cymbals_20INCH_Tap_MF_D4_RR3.opus
</region>

<region>
hivel=51
key=E4
lovel=26
offset=5956
sample=Cymbals_20INCH_Tap_MP_D4_RR3.opus
</region>

<region>
hivel=25
key=E4
lovel=0
offset=4870
sample=Cymbals_20INCH_Tap_P_D4_RR3.opus
</region>

<region>
hivel=103
key=F#4
lovel=78
offset=1556
sample=Cymbals_20INCH_Ting_F_D4_RR3.opus
</region>

<region>
hivel=127
key=F#4
lovel=104
offset=4437
sample=Cymbals_20INCH_Ting_FF_D4_RR3.opus
</region>

<region>
hivel=77
key=F#4
lovel=52
offset=2677
sample=Cymbals_20INCH_Ting_MF_D4_RR3.opus
</region>

<region>
hivel=51
key=F#4
lovel=26
offset=5693
sample=Cymbals_20INCH_Ting_MP_D4_RR3.opus
</region>

<region>
end=217601
hivel=25
key=F#4
lovel=0
offset=5121
sample=Cymbals_20INCH_Ting_P_D4_RR3.opus
</region>

<region>
hivel=127
key=A#4
lovel=0
offset=9741
sample=Cymbals_20INCH_Whale_Call_D4_RR3.opus
</region>

<region>
hivel=127
key=G#4
lovel=64
offset=13081
sample=Cymbals_20INCH_Zing_MP_D4_RR3.opus
</region>

<region>
hivel=63
key=G#4
lovel=0
offset=13630
sample=Cymbals_20INCH_Zing_P_D4_RR3.opus
</region>
</group>

<group>
ampeg_release=0.9664
group_label=RR4
seq_length=4
seq_position=4

<region>
end=58693
hivel=103
key=D#3
lovel=78
offset=837
sample=Cymbals_20INCH_Crash_Choke_F_D4_RR4.opus
</region>

<region>
end=54739
hivel=127
key=D#3
lovel=104
offset=979
sample=Cymbals_20INCH_Crash_Choke_FF_D4_RR4.opus
</region>

<region>
end=47994
hivel=77
key=D#3
lovel=52
offset=890
sample=Cymbals_20INCH_Crash_Choke_MF_D4_RR4.opus
</region>

<region>
end=50887
hivel=51
key=D#3
lovel=26
offset=2247
sample=Cymbals_20INCH_Crash_Choke_MP_D4_RR4.opus
</region>

<region>
end=51891
hivel=25
key=D#3
lovel=0
offset=4275
sample=Cymbals_20INCH_Crash_Choke_P_D4_RR4.opus
</region>

<region>
hivel=103
key=D3
lovel=78
offset=4249
sample=Cymbals_20INCH_Crash_F_D4_RR4.opus
</region>

<region>
hivel=127
key=D3
lovel=104
offset=946
sample=Cymbals_20INCH_Crash_FF_D4_RR4.opus
</region>

<region>
hivel=77
key=D3
lovel=52
offset=3143
sample=Cymbals_20INCH_Crash_MF_D4_RR4.opus
</region>

<region>
hivel=51
key=D3
lovel=26
offset=2617
sample=Cymbals_20INCH_Crash_MP_D4_RR4.opus
</region>

<region>
hivel=25
key=D3
lovel=0
offset=4922
sample=Cymbals_20INCH_Crash_P_D4_RR4.opus
</region>

<region>
end=58428
hivel=103
key=F3
lovel=78
offset=4156
sample=Cymbals_20INCH_HiHat_F_D4_RR4.opus
</region>

<region>
end=63086
hivel=127
key=F3
lovel=104
offset=2670
sample=Cymbals_20INCH_HiHat_FF_D4_RR4.opus
</region>

<region>
end=52531
hivel=77
key=F3
lovel=52
offset=2867
sample=Cymbals_20INCH_HiHat_MF_D4_RR4.opus
</region>

<region>
end=61983
hivel=51
key=F3
lovel=26
offset=2079
sample=Cymbals_20INCH_HiHat_MP_D4_RR4.opus
</region>

<region>
end=38234
hivel=25
key=F3
lovel=0
offset=2906
sample=Cymbals_20INCH_HiHat_P_D4_RR4.opus
</region>

<region>
end=59495
hivel=103
key=G3
lovel=78
offset=3687
sample=Cymbals_20INCH_Punch_F_D4_RR4.opus
</region>

<region>
end=60729
hivel=127
key=G3
lovel=104
offset=4409
sample=Cymbals_20INCH_Punch_FF_D4_RR4.opus
</region>

<region>
end=58528
hivel=77
key=G3
lovel=52
offset=2208
sample=Cymbals_20INCH_Punch_MF_D4_RR4.opus
</region>

<region>
end=69798
hivel=51
key=G3
lovel=26
offset=4262
sample=Cymbals_20INCH_Punch_MP_D4_RR4.opus
</region>

<region>
end=59209
hivel=25
key=G3
lovel=0
offset=3401
sample=Cymbals_20INCH_Punch_P_D4_RR4.opus
</region>

<region>
hivel=103
key=A3
lovel=78
offset=1857
sample=Cymbals_20INCH_Sizzle_F_D4_RR4.opus
</region>

<region>
hivel=127
key=A3
lovel=104
offset=9366
sample=Cymbals_20INCH_Sizzle_FF_D4_RR4.opus
</region>

<region>
hivel=77
key=A3
lovel=52
offset=1394
sample=Cymbals_20INCH_Sizzle_MF_D4_RR4.opus
</region>

<region>
hivel=51
key=A3
lovel=26
offset=3845
sample=Cymbals_20INCH_Sizzle_MP_D4_RR4.opus
</region>

<region>
hivel=25
key=A3
lovel=0
offset=4435
sample=Cymbals_20INCH_Sizzle_P_D4_RR4.opus
</region>

<region>
end=62736
hivel=103
key=B3
lovel=78
offset=3344
sample=Cymbals_20INCH_Spank_F_D4_RR4.opus
</region>

<region>
end=65337
hivel=127
key=B3
lovel=104
offset=5433
sample=Cymbals_20INCH_Spank_FF_D4_RR4.opus
</region>

<region>
end=67251
hivel=77
key=B3
lovel=52
offset=5299
sample=Cymbals_20INCH_Spank_MF_D4_RR4.opus
</region>

<region>
end=60828
hivel=51
key=B3
lovel=26
offset=3996
sample=Cymbals_20INCH_Spank_MP_D4_RR4.opus
</region>

<region>
end=64294
hivel=25
key=B3
lovel=0
offset=5414
sample=Cymbals_20INCH_Spank_P_D4_RR4.opus
</region>

<region>
end=59728
hivel=103
key=D4
lovel=78
offset=4432
sample=Cymbals_20INCH_Suc_F_D4_RR4.opus
</region>

<region>
end=77577
hivel=127
key=D4
lovel=104
offset=4873
sample=Cymbals_20INCH_Suc_FF_D4_RR4.opus
</region>

<region>
end=64246
hivel=77
key=D4
lovel=52
offset=1782
sample=Cymbals_20INCH_Suc_MF_D4_RR4.opus
</region>

<region>
end=62942
hivel=51
key=D4
lovel=26
offset=5086
sample=Cymbals_20INCH_Suc_MP_D4_RR4.opus
</region>

<region>
end=67837
hivel=25
key=D4
lovel=0
offset=2813
sample=Cymbals_20INCH_Suc_P_D4_RR4.opus
</region>

<region>
hivel=103
key=E4
lovel=78
offset=4253
sample=Cymbals_20INCH_Tap_F_D4_RR4.opus
</region>

<region>
hivel=127
key=E4
lovel=104
offset=7298
sample=Cymbals_20INCH_Tap_FF_D4_RR4.opus
</region>

<region>
hivel=77
key=E4
lovel=52
offset=3426
sample=Cymbals_20INCH_Tap_MF_D4_RR4.opus
</region>

<region>
hivel=51
key=E4
lovel=26
offset=5788
sample=Cymbals_20INCH_Tap_MP_D4_RR4.opus
</region>

<region>
hivel=25
key=E4
lovel=0
offset=4081
sample=Cymbals_20INCH_Tap_P_D4_RR4.opus
</region>

<region>
hivel=103
key=F#4
lovel=78
offset=4102
sample=Cymbals_20INCH_Ting_F_D4_RR4.opus
</region>

<region>
hivel=127
key=F#4
lovel=104
offset=4013
sample=Cymbals_20INCH_Ting_FF_D4_RR4.opus
</region>

<region>
hivel=77
key=F#4
lovel=52
offset=6007
sample=Cymbals_20INCH_Ting_MF_D4_RR4.opus
</region>

<region>
hivel=51
key=F#4
lovel=26
offset=3720
sample=Cymbals_20INCH_Ting_MP_D4_RR4.opus
</region>

<region>
end=210754
hivel=25
key=F#4
lovel=0
offset=3906
sample=Cymbals_20INCH_Ting_P_D4_RR4.opus
</region>

<region>
hivel=127
key=A#4
lovel=0
offset=9843
sample=Cymbals_20INCH_Whale_Call_D4_RR4.opus
</region>

<region>
hivel=127
key=G#4
lovel=64
offset=14802
sample=Cymbals_20INCH_Zing_MP_D4_RR4.opus
</region>

<region>
hivel=63
key=G#4
lovel=0
offset=13656
sample=Cymbals_20INCH_Zing_P_D4_RR4.opus
</region>
</group>

<group>
ampeg_attack=0.001
ampeg_release=0.9556
group_label=Rolls_RR1_0-42
seq_length=2
seq_position=1
xf_cccurve=gain
xfin_hicc1=42
xfout_hicc1=84
xfout_locc1=42

<region>
hivel=127
key=D2
loop_end=184953
loop_mode=loop_continuous
loop_start=41796
loop_xfade=36554
lovel=0
sample=Cymbals_20INCH_Roll_Closed_P_D4_RR1.opus
</region>

<region>
hivel=127
key=D#2
loop_end=184953
loop_mode=loop_continuous
loop_start=41796
loop_xfade=36554
lovel=0
sample=Cymbals_20INCH_Roll_Open_P_D4_RR1.opus
</region>
</group>

<group>
ampeg_attack=0.001
ampeg_release=0.9381
group_label=Rolls_RR1_43-85
seq_length=2
seq_position=1
xfin_hicc1=85
xfin_locc1=43
xfout_hicc1=127
xfout_locc1=85

<region>
hivel=127
key=D2
loop_end=184953
loop_mode=loop_continuous
loop_start=41796
loop_xfade=36554
lovel=0
sample=Cymbals_20INCH_Roll_Closed_MF_D4_RR1.opus
</region>

<region>
hivel=127
key=D#2
loop_end=184953
loop_mode=loop_continuous
loop_start=41796
loop_xfade=36554
lovel=0
sample=Cymbals_20INCH_Roll_Open_MF_D4_RR1.opus
</region>
</group>

<group>
ampeg_attack=0.001
ampeg_release=0.9734
group_label=Rolls_RR1_86-127
seq_length=2
seq_position=1
xfin_hicc1=127
xfin_locc1=86
xfout_hicc1=127
xfout_locc1=127

<region>
hivel=127
key=D2
loop_end=184953
loop_mode=loop_continuous
loop_start=41796
loop_xfade=36554
lovel=0
sample=Cymbals_20INCH_Roll_Closed_FF_D4_RR1.opus
</region>

<region>
hivel=127
key=D#2
loop_end=184953
loop_mode=loop_continuous
loop_start=41796
loop_xfade=36554
lovel=0
sample=Cymbals_20INCH_Roll_Open_FF_D4_RR1.opus
</region>
</group>

<group>
ampeg_attack=0.001
ampeg_release=1.0708
group_label=Rolls_RR2_0-42
seq_length=2
seq_position=2
xf_cccurve=gain
xfin_hicc1=42
xfout_hicc1=84
xfout_locc1=42

<region>
hivel=127
key=D2
loop_end=184953
loop_mode=loop_continuous
loop_start=41796
loop_xfade=36554
lovel=0
sample=Cymbals_20INCH_Roll_Closed_P_D4_RR2.opus
</region>

<region>
hivel=127
key=D#2
loop_end=184953
loop_mode=loop_continuous
loop_start=41796
loop_xfade=36554
lovel=0
sample=Cymbals_20INCH_Roll_Open_P_D4_RR2.opus
</region>
</group>

<group>
ampeg_attack=0.001
ampeg_release=1.1045
group_label=Rolls_RR2_43-85
seq_length=2
seq_position=2
xfin_hicc1=85
xfin_locc1=43
xfout_hicc1=127
xfout_locc1=85

<region>
hivel=127
key=D2
loop_end=184953
loop_mode=loop_continuous
loop_start=41796
loop_xfade=36554
lovel=0
sample=Cymbals_20INCH_Roll_Closed_MF_D4_RR2.opus
</region>

<region>
hivel=127
key=D#2
loop_end=184953
loop_mode=loop_continuous
loop_start=41796
loop_xfade=36554
lovel=0
sample=Cymbals_20INCH_Roll_Open_MF_D4_RR2.opus
</region>
</group>

<group>
ampeg_attack=0.001
ampeg_release=1.0335
group_label=Rolls_RR2_86-127
seq_length=2
seq_position=2
xfin_hicc1=127
xfin_locc1=86
xfout_hicc1=127
xfout_locc1=127

<region>
hivel=127
key=D2
loop_end=184953
loop_mode=loop_continuous
loop_start=41796
loop_xfade=36554
lovel=0
sample=Cymbals_20INCH_Roll_Closed_FF_D4_RR2.opus
</region>

<region>
hivel=127
key=D#2
loop_end=184953
loop_mode=loop_continuous
loop_start=41796
loop_xfade=36554
lovel=0
sample=Cymbals_20INCH_Roll_Open_FF_D4_RR2.opus
</region>
</group>

<group>
ampeg_attack=0.01
ampeg_release=1.0657
group_label=RollsRel_RR1_0-42
offset=180000
seq_length=2
seq_position=1
trigger=release
xf_cccurve=gain
xfin_hicc1=42
xfout_hicc1=84
xfout_locc1=42

<region>
hivel=127
key=D2
loop_mode=loop_continuous
lovel=0
sample=Cymbals_20INCH_Roll_Closed_P_D4_RR1.opus
</region>

<region>
hivel=127
key=D#2
loop_mode=loop_continuous
lovel=0
sample=Cymbals_20INCH_Roll_Open_P_D4_RR1.opus
</region>
</group>

<group>
ampeg_attack=0.01
ampeg_release=1.0126
group_label=RollsRel_RR1_43-85
offset=180000
seq_length=2
seq_position=1
trigger=release
xfin_hicc1=85
xfin_locc1=43
xfout_hicc1=127
xfout_locc1=85

<region>
hivel=127
key=D2
loop_mode=loop_continuous
lovel=0
sample=Cymbals_20INCH_Roll_Closed_MF_D4_RR1.opus
</region>

<region>
hivel=127
key=D#2
loop_mode=loop_continuous
lovel=0
sample=Cymbals_20INCH_Roll_Open_MF_D4_RR1.opus
</region>
</group>

<group>
ampeg_attack=0.01
ampeg_release=0.9851
group_label=RollsRel_RR1_86-127
offset=180000
seq_length=2
seq_position=1
trigger=release
xfin_hicc1=127
xfin_locc1=86
xfout_hicc1=127
xfout_locc1=127

<region>
hivel=127
key=D2
lovel=0
sample=Cymbals_20INCH_Roll_Closed_FF_D4_RR1.opus
</region>

<region>
hivel=127
key=D#2
loop_mode=loop_continuous
lovel=0
sample=Cymbals_20INCH_Roll_Open_FF_D4_RR1.opus
</region>
</group>

<group>
ampeg_attack=0.01
ampeg_release=0.9137
group_label=RollsRel_RR2_0-42
offset=180000
seq_length=2
seq_position=2
trigger=release
xf_cccurve=gain
xfin_hicc1=42
xfout_hicc1=84
xfout_locc1=42

<region>
hivel=127
key=D2
loop_mode=loop_continuous
lovel=0
sample=Cymbals_20INCH_Roll_Closed_P_D4_RR2.opus
</region>

<region>
hivel=127
key=D#2
loop_mode=loop_continuous
lovel=0
sample=Cymbals_20INCH_Roll_Open_P_D4_RR2.opus
</region>
</group>

<group>
ampeg_attack=0.01
ampeg_release=1.0471
group_label=RollsRel_RR2_43-85
offset=180000
seq_length=2
seq_position=2
trigger=release
xfin_hicc1=85
xfin_locc1=43
xfout_hicc1=127
xfout_locc1=85

<region>
hivel=127
key=D2
loop_mode=loop_continuous
lovel=0
sample=Cymbals_20INCH_Roll_Closed_MF_D4_RR2.opus
</region>

<region>
hivel=127
key=D#2
loop_mode=loop_continuous
lovel=0
sample=Cymbals_20INCH_Roll_Open_MF_D4_RR2.opus
</region>
</group>

<group>
ampeg_attack=0.01
ampeg_release=0.9823
group_label=RollsRel_RR2_86-127
offset=180000
seq_length=2
seq_position=2
trigger=release
xfin_hicc1=127
xfin_locc1=86
xfout_hicc1=127
xfout_locc1=127

<region>
hivel=127
key=D2
loop_mode=loop_continuous
lovel=0
sample=Cymbals_20INCH_Roll_Closed_FF_D4_RR2.opus
</region>

<region>
hivel=127
key=D#2
loop_mode=loop_continuous
lovel=0
sample=Cymbals_20INCH_Roll_Open_FF_D4_RR2.opus
</region>
</group>